<?xml version="1.0" encoding="utf-8"?>
<!-- Generator: Adobe Illustrator 24.3.0, SVG Export Plug-In . SVG Version: 6.00 Build 0)  -->
<svg version="1.1" id="圖層_1" xmlns="http://www.w3.org/2000/svg" xmlns:xlink="http://www.w3.org/1999/xlink" x="0px" y="0px"
	 viewBox="0 0 142 109" style="enable-background:new 0 0 142 109;" xml:space="preserve">
<style type="text/css">
	.st0{fill:#78C2C4;}
</style>
<g id="dots" transform="translate(-131 -963)">
	<circle id="Ellipse_2" class="st0" cx="136" cy="968" r="5"/>
	<circle id="Ellipse_2-2" class="st0" cx="169" cy="968" r="5"/>
	<circle id="Ellipse_2-3" class="st0" cx="202" cy="968" r="5"/>
	<circle id="Ellipse_2-4" class="st0" cx="235" cy="968" r="5"/>
	<circle id="Ellipse_2-5" class="st0" cx="268" cy="968" r="5"/>
	<circle id="Ellipse_2-6" class="st0" cx="136" cy="1001" r="5"/>
	<circle id="Ellipse_2-7" class="st0" cx="169" cy="1001" r="5"/>
	<circle id="Ellipse_2-8" class="st0" cx="202" cy="1001" r="5"/>
	<circle id="Ellipse_2-9" class="st0" cx="235" cy="1001" r="5"/>
	<circle id="Ellipse_2-10" class="st0" cx="268" cy="1001" r="5"/>
	<circle id="Ellipse_2-11" class="st0" cx="136" cy="1034" r="5"/>
	<circle id="Ellipse_2-12" class="st0" cx="169" cy="1034" r="5"/>
	<circle id="Ellipse_2-13" class="st0" cx="202" cy="1034" r="5"/>
	<circle id="Ellipse_2-14" class="st0" cx="235" cy="1034" r="5"/>
	<circle id="Ellipse_2-15" class="st0" cx="268" cy="1034" r="5"/>
	<circle id="Ellipse_2-16" class="st0" cx="136" cy="1067" r="5"/>
	<circle id="Ellipse_2-17" class="st0" cx="169" cy="1067" r="5"/>
	<circle id="Ellipse_2-18" class="st0" cx="202" cy="1067" r="5"/>
	<circle id="Ellipse_2-19" class="st0" cx="235" cy="1067" r="5"/>
	<circle id="Ellipse_2-20" class="st0" cx="268" cy="1067" r="5"/>
</g>
</svg>
